D:\school\WTK\thesis\model\3dpredictsim\Results\tmt_lin\Pog_s1_tmt_bCst_d00_k500_ig24_act_v4_GRF.mot
nRows=25
nColumns=19

name D:\school\WTK\thesis\model\3dpredictsim\Results\tmt_lin\Pog_s1_tmt_bCst_d00_k500_ig24_act_v4_GRF.mot
datacolumns 19
datarows 25
range 0.0000000000 0.4172187211
endheader
time 	ground_force_vx	ground_force_vy	ground_force_vz	ground_force_px	ground_force_py	ground_force_pz	1_ground_force_vx	1_ground_force_vy	1_ground_force_vz	1_ground_force_px	1_ground_force_py	1_ground_force_pz	ground_torque_x	ground_torque_y	ground_torque_z	1_ground_torque_x	1_ground_torque_y	1_ground_torque_z
        0.0000000000	      -60.5135791034	       44.4813142406	       11.5461791831	       -0.2454080655	        0.0000000000	       -0.0097728273	       -0.0000000000	        0.0000000000	       -0.0000000000	        0.0000000000	        0.0000000000	        0.0000000000	        0.0000000000	        0.0000000000	        0.0000000000	        0.0000000000	        0.0000000000	        0.0000000000	
        0.0173841134	     -107.0708452443	       93.3372021769	       26.5895514632	       -0.2277392391	        0.0000000000	       -0.0133024398	       -0.0000000000	        0.0000000000	       -0.0000000000	        0.0000000000	        0.0000000000	        0.0000000000	        0.0000000000	        0.0000000000	        0.0000000000	        0.0000000000	        0.0000000000	        0.0000000000	
        0.0347682268	     -127.3910631628	      179.7121877016	       26.0548590096	       -0.2177601446	        0.0000000000	       -0.0157784659	       -0.0000000000	        0.0000000000	       -0.0000000000	        0.0000000000	        0.0000000000	        0.0000000000	        0.0000000000	        0.0000000000	        0.0000000000	        0.0000000000	        0.0000000000	        0.0000000000	
        0.0521523401	      -54.1762985902	      411.9153874694	        4.7223127326	       -0.2115772568	        0.0000000000	       -0.0169828135	       -0.0000000000	        0.0000000000	       -0.0000000000	        0.0000000000	        0.0000000000	        0.0000000000	        0.0000000000	        0.0000000000	        0.0000000000	        0.0000000000	        0.0000000000	        0.0000000000	
        0.0695364535	       66.6925010944	      648.6524199617	       -0.5695907869	       -0.2084416960	        0.0000000000	       -0.0171503274	       -0.0000000000	        0.0000000000	       -0.0000000000	        0.0000000000	        0.0000000000	        0.0000000000	        0.0000000000	        0.0000000000	        0.0000000000	        0.0000000000	        0.0000000000	        0.0000000000	
        0.0869205669	      157.6711943892	      773.7232693743	        6.2448681198	       -0.2069018508	        0.0000000000	       -0.0169883765	       -0.0000000000	        0.0000000000	       -0.0000000000	        0.0000000000	        0.0000000000	        0.0000000000	        0.0000000000	        0.0000000000	        0.0000000000	        0.0000000000	        0.0000000000	        0.0000000000	
        0.1043046803	      202.8079230754	      828.2218786468	       13.4763324669	       -0.2063710268	        0.0000000000	       -0.0167728491	       -0.0000000000	        0.0000000000	       -0.0000000000	        0.0000000000	        0.0000000000	        0.0000000000	        0.0000000000	        0.0000000000	        0.0000000000	        0.0000000000	        0.0000000000	        0.0000000000	
        0.1216887936	      231.4958730700	      855.3028613963	       22.6316642632	       -0.2060987980	        0.0000000000	       -0.0164059793	       -0.0000000001	        0.0000000001	       -0.0000000000	        0.0000000000	        0.0000000000	        0.0000000000	        0.0000000000	        0.0000000000	        0.0000000000	        0.0000000000	        0.0000000000	        0.0000000000	
        0.1390729070	      253.2624745585	      857.2761203719	       32.4043804139	       -0.2060401052	        0.0000000000	       -0.0159086226	       -0.0000001040	        0.0000000735	       -0.0000000367	        0.0000000000	        0.0000000000	        0.0000000000	        0.0000000000	        0.0000000000	        0.0000000000	        0.0000000000	        0.0000000000	        0.0000000000	
        0.1564570204	      280.9718171025	      850.7102811203	       41.1445864006	       -0.2062164081	        0.0000000000	       -0.0153335308	       -0.0000614682	        0.0000450384	       -0.0000220924	        0.0000000000	        0.0000000000	        0.0000000000	        0.0000000000	        0.0000000000	        0.0000000000	        0.0000000000	        0.0000000000	        0.0000000000	
        0.1738411338	      311.5676466095	      831.8517666852	       48.4501105675	       -0.2065040693	        0.0000000000	       -0.0146677709	       -0.0271215566	        0.0215561585	       -0.0103458761	        0.0000000000	        0.0000000000	        0.0000000000	        0.0000000000	        0.0000000000	        0.0000000000	        0.0000000000	        0.0000000000	        0.0000000000	
        0.1912252472	      322.8027829798	      766.8788311113	       51.7662204632	       -0.2069737278	        0.0000000000	       -0.0138270786	       -5.8968831612	        5.4726807724	       -2.6404235803	        0.0000000000	        0.0000000000	        0.0000000000	        0.0000000000	        0.0000000000	        0.0000000000	        0.0000000000	        0.0000000000	        0.0000000000	
        0.2086093605	      303.9624687652	      640.8151169626	       41.9038253651	       -0.2075091045	        0.0000000000	       -0.0128385552	      -80.5060432159	      195.7735917767	      -46.7169545117	        0.5539400227	        0.0000000000	       -0.0328662314	        0.0000000000	        0.0000000000	        0.0000000000	        0.0000000000	        0.0000000000	        0.0000000000	
        0.2259934739	      220.7498758880	      438.0095650271	       35.7753135650	       -0.2081191781	        0.0000000000	       -0.0099111592	     -145.8295905693	      580.0452918313	       -9.5283960301	        0.5566122524	        0.0000000000	       -0.0315257071	        0.0000000000	        0.0000000000	        0.0000000000	        0.0000000000	        0.0000000000	        0.0000000000	
        0.2433775873	        9.5065434703	       97.7821352225	        0.5609723879	       -0.2073752105	        0.0000000000	        0.0069469760	     -169.8104796716	      760.1345243105	      -19.2381057043	        0.5607451930	        0.0000000000	       -0.0318365003	        0.0000000000	        0.0000000000	        0.0000000000	        0.0000000000	        0.0000000000	        0.0000000000	
        0.2607617007	      -17.8136847752	       17.9678097291	        3.5288317385	       -0.2026429569	        0.0000000000	        0.0145658000	     -203.3122855124	      977.0530007194	      -25.0113508558	        0.5735326780	        0.0000000000	       -0.0344997869	        0.0000000000	        0.0000000000	        0.0000000000	        0.0000000000	        0.0000000000	        0.0000000000	
        0.2781458140	      -21.1658533680	       15.5614361839	        0.0758211870	       -0.1933359164	        0.0000000000	        0.0057855772	     -192.8527857257	     1031.2080974156	      -18.2546920607	        0.5825927680	        0.0000000000	       -0.0360285905	        0.0000000000	        0.0000000000	        0.0000000000	        0.0000000000	        0.0000000000	        0.0000000000	
        0.2955299274	      -33.4316475354	       21.4678123442	       -1.8154725488	       -0.1912261891	        0.0000000000	       -0.0227576440	     -165.7122739818	      972.6196744009	      -10.1241589894	        0.5883868884	        0.0000000000	       -0.0367494781	        0.0000000000	        0.0000000000	        0.0000000000	        0.0000000000	        0.0000000000	        0.0000000000	
        0.3129140408	      -39.6189391167	       23.5150688033	       -3.3104737893	       -0.1636580708	        0.0000000000	       -0.0261339248	     -143.5842118846	      919.0103230100	       -2.6245675410	        0.5927663683	        0.0000000000	       -0.0371490519	        0.0000000000	        0.0000000000	        0.0000000000	        0.0000000000	        0.0000000000	        0.0000000000	
        0.3302981542	      -34.3737242937	       19.0947453583	       -3.3173797580	       -0.1284135068	        0.0000000000	       -0.0239823441	     -123.2020027602	      863.3598501884	        2.7161848884	        0.5973783479	        0.0000000000	       -0.0373532218	        0.0000000000	        0.0000000000	        0.0000000000	        0.0000000000	        0.0000000000	        0.0000000000	
        0.3476822675	      -27.0747421647	       14.0310953584	       -2.7046824831	       -0.0883594776	        0.0000000000	       -0.0202158555	     -101.1193526294	      804.3755902401	        6.5825152163	        0.6033080826	        0.0000000000	       -0.0373937313	        0.0000000000	        0.0000000000	        0.0000000000	        0.0000000000	        0.0000000000	        0.0000000000	
        0.3650663809	      -18.4880544692	        8.8924294440	       -1.8989800868	        0.0000000000	        0.0000000000	        0.0000000000	      -82.9628692709	      745.6189790301	       11.0351168096	        0.6115438157	        0.0000000000	       -0.0371659498	        0.0000000000	        0.0000000000	        0.0000000000	        0.0000000000	        0.0000000000	        0.0000000000	
        0.3824504943	       -8.6900249831	        3.8769017094	       -0.9185662943	        0.0000000000	        0.0000000000	        0.0000000000	      -68.7635961291	      692.4073161023	       13.8619367401	        0.6211362083	        0.0000000000	       -0.0367759664	        0.0000000000	        0.0000000000	        0.0000000000	        0.0000000000	        0.0000000000	        0.0000000000	
        0.3998346077	       -3.8143576650	        1.6072001927	       -0.4202896071	        0.0000000000	        0.0000000000	        0.0000000000	      -57.8886195155	      649.1119089625	       16.8309547953	        0.6318254702	        0.0000000000	       -0.0362880268	        0.0000000000	        0.0000000000	        0.0000000000	        0.0000000000	        0.0000000000	        0.0000000000	
        0.4172187211	       -1.7344289323	        0.7001306334	       -0.2045446633	        0.0000000000	        0.0000000000	        0.0000000000	      -49.8065091072	      615.1430593631	       19.5855236342	        0.6435017630	        0.0000000000	       -0.0356595628	        0.0000000000	        0.0000000000	        0.0000000000	        0.0000000000	        0.0000000000	        0.0000000000	
